<?xml version="1.0" encoding="utf-8"?>
<!-- Generator: Adobe Illustrator 19.2.0, SVG Export Plug-In . SVG Version: 6.00 Build 0)  -->
<svg version="1.1" id="Layer_1" xmlns="http://www.w3.org/2000/svg" xmlns:xlink="http://www.w3.org/1999/xlink" x="0px" y="0px"
	 viewBox="0 0 165.9 67.1" style="enable-background:new 0 0 165.9 67.1;" xml:space="preserve">
<style type="text/css">
	.st0{fill:#FFFFFF;}
	.st1{fill:#A41E22;}
	.st2{font-family:'ScriptMTBold';}
	.st3{font-size:31.444px;}
	.st4{font-family:'MyriadPro-Regular';}
	.st5{font-size:13.3928px;}
</style>
<path class="st0" d="M12.4,36.1c0,0-11.6-4.4-8.2-16.4c0,0,3.2-9.7,15.5-8.6c0,0,14-17,27.7,0.7c0,0,12.3,1.2,10.5,15.5
	c0,0-1.2,7-9.1,9.7l-0.1,15.5H13L12.4,36.1z"/>
<path class="st1" d="M35,38.3c0,0-7.9-15.8,2.2-15.8c4.5,0,7.3,3.2,2.2,15.5l-0.3,14.9H35V38.3z"/>
<path class="st1" d="M25.8,52.9V37.3c0,0,3.1-0.9,3.2-2.5V22.5h-1.6v9.9l-1.6-0.1v-9.6l-1.1,0v9.5l-1.6,0.1v-9.5l-1.5,0v9.4l-1.1,0
	v-9.4l-1.7,0.1c0,0,0.1,11.7,0,11.9s0.9,2.4,3.2,2.9l0.1,15.3L25.8,52.9z"/>
<text transform="matrix(0.9801 0 0 1 61.531 33.9204)" class="st0 st2 st3">Rasoi</text>
<text transform="matrix(1 0 0 1 61.531 51.7661)" class="st0 st4 st5">food of home</text>
</svg>
